<svg width="25" height="30" viewBox="0 0 25 30" fill="none" xmlns="http://www.w3.org/2000/svg">
<path d="M21.9512 12.5585C21.7853 12.6189 21.6283 12.7018 21.4859 12.8064C20.7503 13.3477 19.3788 14.8262 19.3788 14.8262C19.421 14.7866 18.3912 15.783 17.4471 16.7033C17.1823 16.9617 16.7371 16.7761 16.7339 16.406V4.48078C16.7339 3.31189 15.7886 2.50554 14.6447 2.74586C13.7319 2.93766 13.2448 3.78681 13.2448 4.80213L13.2528 13.804L11.8615 13.8073V1.62503C11.8615 0.509688 10.9661 -0.222505 9.88735 0.0613085C9.14715 0.255858 8.80062 0.952573 8.80062 1.83102V13.824L7.41337 13.8269L7.40536 4.08253C7.40536 3.10887 6.94622 2.2501 5.97302 2.22126C4.96159 2.19128 4.47453 3.03974 4.47453 4.04454L4.46011 13.843L3.10399 13.8457V7.42329C3.10399 6.41163 2.6334 5.64739 1.61626 5.64739C0.60437 5.64739 0.133789 6.41163 0.133789 7.42329L0.134933 21.681C0.642364 29.0112 4.78626 29.9999 9.11808 29.9999C12.7069 29.9999 15.578 28.2197 17.1674 25.374C17.372 25.044 17.925 24.1742 18.5807 23.144C19.5134 21.6789 20.3598 20.3681 20.9538 19.4393C21.7368 18.2146 22.4536 17.2579 23.3403 16.1059C23.5871 15.7855 23.7914 15.5275 23.889 15.4209C24.1561 15.1293 24.3321 14.7665 24.3847 14.3749V14.3009C24.3847 12.8871 23.279 12.0732 21.9512 12.5585Z" fill="#FD6000"/>
</svg>
