<svg width="29" height="29" viewBox="0 0 29 29" fill="none" xmlns="http://www.w3.org/2000/svg">
<path d="M22.6562 2.26562H24.4688C25.0696 2.26562 25.6459 2.50432 26.0708 2.92921C26.4957 3.3541 26.7344 3.93037 26.7344 4.53125V24.4688C26.7344 25.0696 26.4957 25.6459 26.0708 26.0708C25.6459 26.4957 25.0696 26.7344 24.4688 26.7344H4.53125C3.93037 26.7344 3.3541 26.4957 2.92921 26.0708C2.50432 25.6459 2.26562 25.0696 2.26562 24.4688V4.53125C2.26562 3.93037 2.50432 3.3541 2.92921 2.92921C3.3541 2.50432 3.93037 2.26563 4.53125 2.26562H6.34375" stroke="#681FC3" stroke-width="2" stroke-miterlimit="10" stroke-linecap="square"/>
<path d="M19.9375 16.7656L14.5 12.2344L9.0625 16.7656V2.26562H19.9375V16.7656Z" stroke="#681FC3" stroke-width="2" stroke-miterlimit="10" stroke-linecap="square"/>
</svg>
