<svg width="30" height="29" viewBox="0 0 30 29" fill="none" xmlns="http://www.w3.org/2000/svg">
<path d="M24.4496 19.2729L22.4821 17.4C23.413 16.5743 24.1429 15.5975 24.6718 14.4698C25.2007 13.342 25.4651 12.1437 25.4651 10.875C25.4651 9.60622 25.2007 8.41802 24.6718 7.31038C24.1429 6.20275 23.413 5.23608 22.4821 4.41038L24.4496 2.47705C25.6344 3.54441 26.5758 4.80309 27.274 6.25309C27.9721 7.70309 28.3212 9.24372 28.3212 10.875C28.3212 12.5062 27.9721 14.0468 27.274 15.4968C26.5758 16.9468 25.6344 18.2055 24.4496 19.2729ZM20.3877 15.4062L18.3567 13.4729C18.7375 13.1305 19.0443 12.7428 19.277 12.3099C19.5097 11.8769 19.6261 11.3986 19.6261 10.875C19.6261 10.3514 19.5097 9.87306 19.277 9.44007C19.0443 9.00709 18.7375 8.61941 18.3567 8.27705L20.3877 6.34372C21.0647 6.92775 21.5936 7.60743 21.9744 8.38278C22.3552 9.15813 22.5456 9.98886 22.5456 10.875C22.5456 11.7611 22.3552 12.5918 21.9744 13.3672C21.5936 14.1425 21.0647 14.8222 20.3877 15.4062ZM10.5501 15.7083C9.15385 15.7083 7.95854 15.235 6.9642 14.2885C5.96987 13.342 5.4727 12.2041 5.4727 10.875C5.4727 9.5458 5.96987 8.40795 6.9642 7.46143C7.95854 6.5149 9.15385 6.04163 10.5501 6.04163C11.9464 6.04163 13.1418 6.5149 14.1361 7.46143C15.1304 8.40795 15.6276 9.5458 15.6276 10.875C15.6276 12.2041 15.1304 13.342 14.1361 14.2885C13.1418 15.235 11.9464 15.7083 10.5501 15.7083ZM0.395264 25.375V21.9916C0.395264 21.3271 0.57509 20.7027 0.934742 20.1187C1.29439 19.5347 1.79156 19.0916 2.42624 18.7896C3.5052 18.2659 4.72167 17.8229 6.07565 17.4604C7.42964 17.0979 8.92113 16.9166 10.5501 16.9166C12.1792 16.9166 13.6707 17.0979 15.0246 17.4604C16.3786 17.8229 17.5951 18.2659 18.6741 18.7896C19.3087 19.0916 19.8059 19.5347 20.1656 20.1187C20.5252 20.7027 20.705 21.3271 20.705 21.9916V25.375H0.395264ZM2.93398 22.9583H18.1663V21.9916C18.1663 21.7701 18.1081 21.5687 17.9918 21.3875C17.8754 21.2062 17.722 21.0652 17.5316 20.9646C16.77 20.6021 15.7915 20.2396 14.5962 19.8771C13.4009 19.5146 12.0522 19.3333 10.5501 19.3333C9.04807 19.3333 7.69937 19.5146 6.50406 19.8771C5.30875 20.2396 4.33028 20.6021 3.56866 20.9646C3.37826 21.0652 3.22488 21.2062 3.10852 21.3875C2.99216 21.5687 2.93398 21.7701 2.93398 21.9916V22.9583ZM10.5501 13.2916C11.2483 13.2916 11.846 13.055 12.3431 12.5817C12.8403 12.1085 13.0889 11.5396 13.0889 10.875C13.0889 10.2104 12.8403 9.64146 12.3431 9.1682C11.846 8.69493 11.2483 8.4583 10.5501 8.4583C9.852 8.4583 9.25434 8.69493 8.75717 9.1682C8.26001 9.64146 8.01143 10.2104 8.01143 10.875C8.01143 11.5396 8.26001 12.1085 8.75717 12.5817C9.25434 13.055 9.852 13.2916 10.5501 13.2916Z" fill="#00A89A"/>
</svg>
