<svg width="30" height="29" viewBox="0 0 30 29" fill="none" xmlns="http://www.w3.org/2000/svg">
<path d="M3.03418 0.200195H26.2334C26.9774 0.200195 27.6099 0.462455 28.1406 0.993164C28.6713 1.52387 28.9336 2.15636 28.9336 2.90039V20.2998C28.9336 21.0438 28.6713 21.6763 28.1406 22.207C27.6099 22.7377 26.9774 23 26.2334 23H5.85059L0.333984 28.5166V2.90039C0.333984 2.15636 0.596244 1.52387 1.12695 0.993164C1.65766 0.462455 2.29014 0.200195 3.03418 0.200195ZM2.83398 22.4062L3.17383 22.0742L4.7832 20.5H26.4336V2.7002H2.83398V22.4062ZM17.334 14.7002V17.2002H6.13379V14.7002H17.334ZM23.1338 10.3496V12.8496H6.13379V10.3496H23.1338ZM23.1338 6V8.5H6.13379V6H23.1338Z" fill="#8397AB" stroke="white" stroke-width="0.4"/>
</svg>
